<mxfile host="app.diagrams.net" agent="Mozilla/5.0 (Macintosh; Intel Mac OS X 10_15_7) AppleWebKit/537.36 (KHTML, like Gecko) Chrome/138.0.0.0 Safari/537.36" version="28.0.6">
  <diagram id="UbNpYNEsMSSZ79cF6tsM" name="AWS VPC Architecture">
    <mxGraphModel dx="2503" dy="919" grid="1" gridSize="10" guides="1" tooltips="1" connect="1" arrows="1" fold="1" page="1" pageScale="1" pageWidth="827" pageHeight="1169" math="0" shadow="0">
      <root>
        <mxCell id="0" />
        <mxCell id="1" parent="0" />
        <mxCell id="I6jt_ba33dPU5Dtlm3FK-7" value="AWS Cloud" style="sketch=0;outlineConnect=0;gradientColor=none;html=1;whiteSpace=wrap;fontSize=14;fontStyle=1;shape=mxgraph.aws4.group;grIcon=mxgraph.aws4.group_aws_cloud;strokeColor=#232F3E;fillColor=none;verticalAlign=top;align=left;spacingLeft=30;fontColor=#232F3E;dashed=0;" parent="1" vertex="1">
          <mxGeometry x="-70" y="220" width="950" height="780" as="geometry" />
        </mxCell>
        <mxCell id="I6jt_ba33dPU5Dtlm3FK-8" value="VPC" style="sketch=0;outlineConnect=0;gradientColor=none;html=1;whiteSpace=wrap;fontSize=14;fontStyle=1;shape=mxgraph.aws4.group;grIcon=mxgraph.aws4.group_vpc;strokeColor=#248814;fillColor=none;verticalAlign=top;align=left;spacingLeft=30;fontColor=#248814;dashed=0;" parent="1" vertex="1">
          <mxGeometry x="-40" y="320" width="890" height="660" as="geometry" />
        </mxCell>
        <mxCell id="I6jt_ba33dPU5Dtlm3FK-9" value="Backend Security Group&lt;br&gt;DB, Cache, MQ" style="sketch=0;outlineConnect=0;gradientColor=none;html=1;whiteSpace=wrap;fontSize=12;fontStyle=1;shape=mxgraph.aws4.group;grIcon=mxgraph.aws4.group_security_group;strokeColor=#D86613;fillColor=#FFF2CC;verticalAlign=top;align=left;spacingLeft=30;fontColor=#D86613;dashed=0;" parent="1" vertex="1">
          <mxGeometry x="10" y="610" width="450" height="200" as="geometry" />
        </mxCell>
        <mxCell id="I6jt_ba33dPU5Dtlm3FK-10" value="Application Security Group" style="sketch=0;outlineConnect=0;gradientColor=none;html=1;whiteSpace=wrap;fontSize=12;fontStyle=1;shape=mxgraph.aws4.group;grIcon=mxgraph.aws4.group_security_group;strokeColor=#7AA116;fillColor=#F2F6E8;verticalAlign=top;align=left;spacingLeft=30;fontColor=#248814;dashed=0;" parent="1" vertex="1">
          <mxGeometry x="500" y="530" width="300" height="220" as="geometry" />
        </mxCell>
        <mxCell id="I6jt_ba33dPU5Dtlm3FK-11" value="Bastion Security Group" style="sketch=0;outlineConnect=0;gradientColor=none;html=1;whiteSpace=wrap;fontSize=12;fontStyle=1;shape=mxgraph.aws4.group;grIcon=mxgraph.aws4.group_security_group;strokeColor=#FF6B35;fillColor=#FFE6E6;verticalAlign=top;align=left;spacingLeft=30;fontColor=#FF6B35;dashed=0;" parent="1" vertex="1">
          <mxGeometry x="60" y="380" width="200" height="150" as="geometry" />
        </mxCell>
        <mxCell id="I6jt_ba33dPU5Dtlm3FK-12" value="Internet Gateway" style="sketch=0;outlineConnect=0;fontColor=#232F3E;gradientColor=none;fillColor=#4D27AA;strokeColor=none;dashed=0;verticalLabelPosition=bottom;verticalAlign=top;align=center;html=1;fontSize=14;fontStyle=1;aspect=fixed;pointerEvents=1;shape=mxgraph.aws4.internet_gateway;" parent="1" vertex="1">
          <mxGeometry x="320" y="250" width="80" height="80" as="geometry" />
        </mxCell>
        <mxCell id="I6jt_ba33dPU5Dtlm3FK-13" value="Elastic Beanstalk" style="sketch=0;outlineConnect=0;fontColor=#232F3E;gradientColor=none;fillColor=#ED7100;strokeColor=none;dashed=0;verticalLabelPosition=bottom;verticalAlign=top;align=center;html=1;fontSize=14;fontStyle=1;aspect=fixed;pointerEvents=1;shape=mxgraph.aws4.elastic_beanstalk;" parent="1" vertex="1">
          <mxGeometry x="600" y="600" width="120" height="120" as="geometry" />
        </mxCell>
        <mxCell id="I6jt_ba33dPU5Dtlm3FK-14" value="Amazon RDS" style="sketch=0;outlineConnect=0;fontColor=#232F3E;gradientColor=none;fillColor=#C925D1;strokeColor=none;dashed=0;verticalLabelPosition=bottom;verticalAlign=top;align=center;html=1;fontSize=14;fontStyle=1;aspect=fixed;pointerEvents=1;shape=mxgraph.aws4.rds_mysql_instance;" parent="1" vertex="1">
          <mxGeometry x="44" y="672" width="100" height="100" as="geometry" />
        </mxCell>
        <mxCell id="I6jt_ba33dPU5Dtlm3FK-15" value="ElastiCache" style="sketch=0;outlineConnect=0;fontColor=#232F3E;gradientColor=none;fillColor=#C925D1;strokeColor=none;dashed=0;verticalLabelPosition=bottom;verticalAlign=top;align=center;html=1;fontSize=14;fontStyle=1;aspect=fixed;pointerEvents=1;shape=mxgraph.aws4.elasticache_for_memcached;" parent="1" vertex="1">
          <mxGeometry x="185" y="672" width="100" height="100" as="geometry" />
        </mxCell>
        <mxCell id="I6jt_ba33dPU5Dtlm3FK-16" value="Amazon MQ" style="sketch=0;outlineConnect=0;fontColor=#232F3E;gradientColor=none;fillColor=#E7157B;strokeColor=none;dashed=0;verticalLabelPosition=bottom;verticalAlign=top;align=center;html=1;fontSize=14;fontStyle=1;aspect=fixed;pointerEvents=1;shape=mxgraph.aws4.mq;" parent="1" vertex="1">
          <mxGeometry x="320" y="672" width="100" height="100" as="geometry" />
        </mxCell>
        <mxCell id="I6jt_ba33dPU5Dtlm3FK-17" value="&lt;font style=&quot;font-size: 14px;&quot;&gt;Admin&lt;/font&gt;" style="sketch=0;outlineConnect=0;fontColor=#232F3E;gradientColor=none;fillColor=#FF6B35;strokeColor=none;dashed=0;verticalLabelPosition=bottom;verticalAlign=top;align=center;html=1;fontSize=14;fontStyle=1;aspect=fixed;pointerEvents=1;shape=mxgraph.aws4.user;" parent="1" vertex="1">
          <mxGeometry x="117.5" y="77.5" width="85" height="85" as="geometry" />
        </mxCell>
        <mxCell id="I6jt_ba33dPU5Dtlm3FK-18" value="" style="endArrow=classic;html=1;rounded=0;strokeColor=#147EBA;strokeWidth=3;entryX=0.5;entryY=0;entryDx=0;entryDy=0;exitX=0.5;exitY=1;exitDx=0;exitDy=0;" parent="1" source="I6jt_ba33dPU5Dtlm3FK-12" target="I6jt_ba33dPU5Dtlm3FK-23" edge="1">
          <mxGeometry width="50" height="50" relative="1" as="geometry">
            <mxPoint x="360" y="330" as="sourcePoint" />
            <mxPoint x="360" y="340" as="targetPoint" />
          </mxGeometry>
        </mxCell>
        <mxCell id="I6jt_ba33dPU5Dtlm3FK-19" value="" style="endArrow=classic;html=1;rounded=0;strokeColor=#147EBA;strokeWidth=3;labelBackgroundColor=#ffffff;fontSize=12;fontStyle=1;" parent="1" edge="1">
          <mxGeometry x="-0.1373" y="-69" width="50" height="50" relative="1" as="geometry">
            <mxPoint x="360" y="480" as="sourcePoint" />
            <mxPoint x="360" y="610" as="targetPoint" />
            <mxPoint as="offset" />
          </mxGeometry>
        </mxCell>
        <mxCell id="I6jt_ba33dPU5Dtlm3FK-20" value="SSH Access" style="endArrow=classic;html=1;rounded=0;strokeColor=#FF6B35;strokeWidth=2;labelBackgroundColor=#ffffff;fontSize=12;fontStyle=1;" parent="1" source="I6jt_ba33dPU5Dtlm3FK-17" target="I6jt_ba33dPU5Dtlm3FK-25" edge="1">
          <mxGeometry x="-0.0874" width="50" height="50" relative="1" as="geometry">
            <mxPoint x="160" y="520" as="sourcePoint" />
            <mxPoint x="120" y="470" as="targetPoint" />
            <mxPoint as="offset" />
          </mxGeometry>
        </mxCell>
        <mxCell id="I6jt_ba33dPU5Dtlm3FK-21" value="&lt;font style=&quot;font-size: 14px;&quot;&gt;Internet&lt;/font&gt;" style="endArrow=classic;html=1;rounded=0;strokeColor=#4D27AA;strokeWidth=3;labelBackgroundColor=#ffffff;fontSize=12;fontStyle=1;entryX=0.5;entryY=1;entryDx=0;entryDy=0;" parent="1" source="I6jt_ba33dPU5Dtlm3FK-12" target="I6jt_ba33dPU5Dtlm3FK-24" edge="1">
          <mxGeometry x="1" y="90" width="50" height="50" relative="1" as="geometry">
            <mxPoint x="360" y="210" as="sourcePoint" />
            <mxPoint x="361" y="180" as="targetPoint" />
            <mxPoint x="90" y="-90" as="offset" />
          </mxGeometry>
        </mxCell>
        <mxCell id="I6jt_ba33dPU5Dtlm3FK-22" value="&lt;blockquote style=&quot;margin: 0 0 0 40px; border: none; padding: 0px;&quot;&gt;&lt;font style=&quot;font-size: 12px;&quot;&gt;Security Groups:&lt;br&gt;• Backend SG - RDS, ElastiCache, MQ (3306, 11211, 5671)&lt;br&gt;• Application SG - Elastic Beanstalk (80)&lt;br&gt;• Bastion SG - SSH access (22)&lt;/font&gt;&lt;/blockquote&gt;&lt;blockquote style=&quot;margin: 0 0 0 40px; border: none; padding: 0px;&quot;&gt;&lt;font style=&quot;font-size: 12px;&quot;&gt;Services:&lt;br&gt;• RDS MySQL - Database storage&lt;br&gt;• ElastiCache&amp;nbsp; - Memcached caching&lt;br&gt;• Amazon MQ&amp;nbsp; - RabbitMQ messaging&lt;/font&gt;&lt;/blockquote&gt;&lt;blockquote style=&quot;margin: 0 0 0 40px; border: none; padding: 0px;&quot;&gt;&lt;font style=&quot;font-size: 12px;&quot;&gt;• Elastic Beanstalk - Application platform&amp;nbsp;&lt;/font&gt;&lt;/blockquote&gt;" style="text;html=1;strokeColor=#232F3E;fillColor=#F8F9FA;align=left;verticalAlign=top;whiteSpace=wrap;rounded=1;fontSize=11;fontColor=#232F3E;fontStyle=0;" parent="1" vertex="1">
          <mxGeometry x="450" y="820" width="382.5" height="140" as="geometry" />
        </mxCell>
        <mxCell id="I6jt_ba33dPU5Dtlm3FK-23" value="NAT Gateway" style="sketch=0;outlineConnect=0;fontColor=#232F3E;gradientColor=none;fillColor=#4D27AA;strokeColor=none;dashed=0;verticalLabelPosition=bottom;verticalAlign=top;align=center;html=1;fontSize=14;fontStyle=1;aspect=fixed;pointerEvents=1;shape=mxgraph.aws4.nat_gateway;" parent="1" vertex="1">
          <mxGeometry x="320" y="418" width="80" height="80" as="geometry" />
        </mxCell>
        <mxCell id="I6jt_ba33dPU5Dtlm3FK-24" value="" style="image;aspect=fixed;perimeter=ellipsePerimeter;html=1;align=center;shadow=0;dashed=0;spacingTop=3;image=img/lib/active_directory/internet_globe.svg;" parent="1" vertex="1">
          <mxGeometry x="320" y="80" width="80" height="80" as="geometry" />
        </mxCell>
        <mxCell id="I6jt_ba33dPU5Dtlm3FK-25" value="&lt;span style=&quot;font-size: 14px; font-weight: 700;&quot;&gt;Bastion Host&lt;/span&gt;" style="sketch=0;points=[[0,0,0],[0.25,0,0],[0.5,0,0],[0.75,0,0],[1,0,0],[0,1,0],[0.25,1,0],[0.5,1,0],[0.75,1,0],[1,1,0],[0,0.25,0],[0,0.5,0],[0,0.75,0],[1,0.25,0],[1,0.5,0],[1,0.75,0]];outlineConnect=0;fontColor=#232F3E;fillColor=#ED7100;strokeColor=#ffffff;dashed=0;verticalLabelPosition=bottom;verticalAlign=top;align=center;html=1;fontSize=12;fontStyle=0;aspect=fixed;shape=mxgraph.aws4.resourceIcon;resIcon=mxgraph.aws4.ec2;" parent="1" vertex="1">
          <mxGeometry x="121" y="420" width="78" height="78" as="geometry" />
        </mxCell>
        <mxCell id="I6jt_ba33dPU5Dtlm3FK-26" value="" style="shape=image;verticalLabelPosition=bottom;verticalAlign=top;imageAspect=0;image=https://www.datocms-assets.com/2885/1506457071-blog-terraform-list.svg;" parent="1" vertex="1">
          <mxGeometry x="680" y="60" width="130" height="130" as="geometry" />
        </mxCell>
        <mxCell id="I6jt_ba33dPU5Dtlm3FK-27" value="" style="endArrow=classic;html=1;rounded=0;strokeColor=#FF6B35;strokeWidth=2;labelBackgroundColor=#ffffff;fontSize=12;fontStyle=1;exitX=1;exitY=0.25;exitDx=0;exitDy=0;exitPerimeter=0;" parent="1" source="I6jt_ba33dPU5Dtlm3FK-25" target="I6jt_ba33dPU5Dtlm3FK-12" edge="1">
          <mxGeometry x="-0.0584" y="15" width="50" height="50" relative="1" as="geometry">
            <mxPoint x="199" y="473.5" as="sourcePoint" />
            <mxPoint x="508" y="471.5" as="targetPoint" />
            <mxPoint as="offset" />
          </mxGeometry>
        </mxCell>
        <mxCell id="I6jt_ba33dPU5Dtlm3FK-28" value="" style="endArrow=classic;html=1;rounded=0;strokeColor=#FF6B35;strokeWidth=2;labelBackgroundColor=#ffffff;fontSize=12;fontStyle=1;exitX=1;exitY=0.5;exitDx=0;exitDy=0;exitPerimeter=0;" parent="1" source="I6jt_ba33dPU5Dtlm3FK-25" target="I6jt_ba33dPU5Dtlm3FK-9" edge="1">
          <mxGeometry x="-0.0584" y="15" width="50" height="50" relative="1" as="geometry">
            <mxPoint x="199" y="480" as="sourcePoint" />
            <mxPoint x="220" y="620" as="targetPoint" />
            <mxPoint as="offset" />
          </mxGeometry>
        </mxCell>
        <mxCell id="I6jt_ba33dPU5Dtlm3FK-29" value="" style="endArrow=classic;html=1;rounded=0;strokeColor=#FF6B35;strokeWidth=2;labelBackgroundColor=#ffffff;fontSize=12;fontStyle=1;entryX=0;entryY=0.5;entryDx=0;entryDy=0;" parent="1" source="I6jt_ba33dPU5Dtlm3FK-17" target="I6jt_ba33dPU5Dtlm3FK-24" edge="1">
          <mxGeometry x="-0.0584" y="15" width="50" height="50" relative="1" as="geometry">
            <mxPoint x="220" y="100" as="sourcePoint" />
            <mxPoint x="300" y="100" as="targetPoint" />
            <mxPoint as="offset" />
          </mxGeometry>
        </mxCell>
        <mxCell id="I6jt_ba33dPU5Dtlm3FK-30" value="" style="endArrow=classic;html=1;rounded=0;strokeColor=#7AA116;strokeWidth=3;" parent="1" source="I6jt_ba33dPU5Dtlm3FK-13" target="I6jt_ba33dPU5Dtlm3FK-12" edge="1">
          <mxGeometry width="50" height="50" relative="1" as="geometry">
            <mxPoint x="625.416623634558" y="582.7690566037736" as="sourcePoint" />
            <mxPoint x="399.9982281940333" y="297.23908904577536" as="targetPoint" />
          </mxGeometry>
        </mxCell>
        <mxCell id="I6jt_ba33dPU5Dtlm3FK-31" value="" style="endArrow=classic;html=1;rounded=0;strokeColor=#7AA116;strokeWidth=3;" parent="1" source="I6jt_ba33dPU5Dtlm3FK-13" target="I6jt_ba33dPU5Dtlm3FK-9" edge="1">
          <mxGeometry width="50" height="50" relative="1" as="geometry">
            <mxPoint x="705.416623634558" y="852.7690566037736" as="sourcePoint" />
            <mxPoint x="479.9982281940333" y="567.2390890457754" as="targetPoint" />
          </mxGeometry>
        </mxCell>
        <mxCell id="I6jt_ba33dPU5Dtlm3FK-33" value="&lt;font style=&quot;font-size: 14px;&quot;&gt;End User&lt;/font&gt;" style="sketch=0;outlineConnect=0;fontColor=#232F3E;gradientColor=none;fillColor=#FF6B35;strokeColor=none;dashed=0;verticalLabelPosition=bottom;verticalAlign=top;align=center;html=1;fontSize=14;fontStyle=1;aspect=fixed;pointerEvents=1;shape=mxgraph.aws4.user;" parent="1" vertex="1">
          <mxGeometry x="515" y="77.5" width="85" height="85" as="geometry" />
        </mxCell>
        <mxCell id="I6jt_ba33dPU5Dtlm3FK-36" value="" style="endArrow=classic;html=1;rounded=0;strokeColor=#FF6B35;strokeWidth=2;labelBackgroundColor=#ffffff;fontSize=12;fontStyle=1;entryX=1;entryY=0.5;entryDx=0;entryDy=0;" parent="1" source="I6jt_ba33dPU5Dtlm3FK-33" target="I6jt_ba33dPU5Dtlm3FK-24" edge="1">
          <mxGeometry x="-0.0584" y="15" width="50" height="50" relative="1" as="geometry">
            <mxPoint x="400" y="50" as="sourcePoint" />
            <mxPoint x="521" y="50" as="targetPoint" />
            <mxPoint as="offset" />
          </mxGeometry>
        </mxCell>
        <mxCell id="I6jt_ba33dPU5Dtlm3FK-38" value="&lt;font style=&quot;font-size: 14px;&quot;&gt;&lt;b style=&quot;&quot;&gt;S3&lt;/b&gt;&lt;/font&gt;" style="sketch=0;points=[[0,0,0],[0.25,0,0],[0.5,0,0],[0.75,0,0],[1,0,0],[0,1,0],[0.25,1,0],[0.5,1,0],[0.75,1,0],[1,1,0],[0,0.25,0],[0,0.5,0],[0,0.75,0],[1,0.25,0],[1,0.5,0],[1,0.75,0]];outlineConnect=0;fontColor=#232F3E;fillColor=#7AA116;strokeColor=#ffffff;dashed=0;verticalLabelPosition=bottom;verticalAlign=top;align=center;html=1;fontSize=12;fontStyle=0;aspect=fixed;shape=mxgraph.aws4.resourceIcon;resIcon=mxgraph.aws4.s3;" parent="1" vertex="1">
          <mxGeometry x="520" y="230" width="60" height="60" as="geometry" />
        </mxCell>
        <mxCell id="I6jt_ba33dPU5Dtlm3FK-39" value="" style="endArrow=classic;html=1;rounded=0;strokeColor=#4D27AA;strokeWidth=3;labelBackgroundColor=#ffffff;fontSize=12;fontStyle=1;entryX=1;entryY=0.5;entryDx=0;entryDy=0;entryPerimeter=0;" parent="1" source="I6jt_ba33dPU5Dtlm3FK-26" target="I6jt_ba33dPU5Dtlm3FK-38" edge="1">
          <mxGeometry x="1" y="90" width="50" height="50" relative="1" as="geometry">
            <mxPoint x="720.26" y="180" as="sourcePoint" />
            <mxPoint x="720" y="220" as="targetPoint" />
            <mxPoint x="90" y="-90" as="offset" />
          </mxGeometry>
        </mxCell>
        <mxCell id="I6jt_ba33dPU5Dtlm3FK-40" value="Store the state file" style="edgeLabel;html=1;align=center;verticalAlign=middle;resizable=0;points=[];" parent="I6jt_ba33dPU5Dtlm3FK-39" vertex="1" connectable="0">
          <mxGeometry x="-0.1396" y="1" relative="1" as="geometry">
            <mxPoint x="6" y="-7" as="offset" />
          </mxGeometry>
        </mxCell>
        <mxCell id="I6jt_ba33dPU5Dtlm3FK-41" value="" style="endArrow=classic;html=1;rounded=0;strokeColor=#4D27AA;strokeWidth=3;labelBackgroundColor=#ffffff;fontSize=12;fontStyle=1;" parent="1" edge="1">
          <mxGeometry x="1" y="90" width="50" height="50" relative="1" as="geometry">
            <mxPoint x="745.09" y="190" as="sourcePoint" />
            <mxPoint x="744.85" y="220" as="targetPoint" />
            <mxPoint x="90" y="-90" as="offset" />
          </mxGeometry>
        </mxCell>
      </root>
    </mxGraphModel>
  </diagram>
</mxfile>
